P3
8 8
255
255 255 255
255 255 255
255 255 255
54 18 11
54 18 11
255 255 255
255 255 255
255 255 255
85 74 71
85 74 71
85 74 71
208 51 17
208 51 17
85 74 71
85 74 71
85 74 71
85 74 71
208 51 17
54 18 11
54 18 11
54 18 11
54 18 11
208 51 17
85 74 71
255 255 255
208 51 17
208 51 17
54 18 11
54 18 11
208 51 17
208 51 17
255 255 255
255 255 255
0 255 56
208 51 17
54 18 11
54 18 11
208 51 17
0 255 56
255 255 255
255 255 255
54 18 11
208 51 17
208 51 17
208 51 17
208 51 17
54 18 11
255 255 255
255 255 255
54 18 11
54 18 11
54 18 11
54 18 11
54 18 11
54 18 11
255 255 255
255 255 255
255 255 255
255 255 255
54 18 11
54 18 11
255 255 255
255 255 255
255 255 255
