P3
15 15
255
167 255 211
167 255 211
167 255 211
167 255 211
167 255 211
167 255 211
167 255 211
167 255 211
167 255 211
167 255 211
167 255 211
167 255 211
167 255 211
167 255 211
167 255 211
167 255 211
22 21 20
22 21 20
22 21 20
22 21 20
22 21 20
22 21 20
22 21 20
22 21 20
22 21 20
22 21 20
22 21 20
22 21 20
167 255 211
167 255 211
167 255 211
22 21 20
243 218 181
243 218 181
243 218 181
243 218 181
243 218 181
118 104 101
118 104 101
118 104 101
118 104 101
118 104 101
22 21 20
167 255 211
167 255 211
167 255 211
22 21 20
243 218 181
118 104 101
118 104 101
118 104 101
243 218 181
118 104 101
118 104 101
118 104 101
118 104 101
118 104 101
118 104 101
167 255 211
167 255 211
167 255 211
22 21 20
243 218 181
243 218 181
0 233 45
243 218 181
243 218 181
118 104 101
118 104 101
118 104 101
118 104 101
118 104 101
118 104 101
167 255 211
167 255 211
167 255 211
22 21 20
243 218 181
243 218 181
0 233 45
243 218 181
243 218 181
243 218 181
118 104 101
118 104 101
118 104 101
118 104 101
118 104 101
167 255 211
167 255 211
167 255 211
22 21 20
243 218 181
243 218 181
0 233 45
243 218 181
243 218 181
243 218 181
243 218 181
118 104 101
118 104 101
118 104 101
118 104 101
167 255 211
167 255 211
167 255 211
22 21 20
22 21 20
243 218 181
243 218 181
243 218 181
243 218 181
243 218 181
243 218 181
243 218 181
118 104 101
118 104 101
118 104 101
167 255 211
167 255 211
22 21 20
22 21 20
22 21 20
243 218 181
243 218 181
147 36 36
147 36 36
147 36 36
147 36 36
243 218 181
243 218 181
118 104 101
118 104 101
167 255 211
167 255 211
22 21 20
22 21 20
22 21 20
22 21 20
243 218 181
243 218 181
243 218 181
243 218 181
243 218 181
243 218 181
22 21 20
22 21 20
118 104 101
167 255 211
167 255 211
22 21 20
22 21 20
22 21 20
22 21 20
22 21 20
243 218 181
243 218 181
243 218 181
243 218 181
243 218 181
118 104 101
118 104 101
118 104 101
167 255 211
167 255 211
22 21 20
22 21 20
255 255 255
255 255 255
255 255 255
255 255 255
255 255 255
0 0 0
255 255 255
255 255 255
255 255 255
255 255 255
255 255 255
167 255 211
167 255 211
22 21 20
22 21 20
0 0 0
255 255 255
255 255 255
255 255 255
0 0 0
0 0 0
0 0 0
255 255 255
255 255 255
255 255 255
0 0 0
167 255 211
167 255 211
22 21 20
22 21 20
0 0 0
255 255 255
255 255 255
255 255 255
0 0 0
0 0 0
0 0 0
255 255 255
255 255 255
255 255 255
0 0 0
167 255 211
167 255 211
22 21 20
22 21 20
0 0 0
0 0 0
255 255 255
0 0 0
0 0 0
0 0 0
0 0 0
0 0 0
255 255 255
0 0 0
0 0 0
167 255 211
167 255 211
