P3
5 5
255
0 254 255
204 255 76
255 190 0
204 255 76
0 254 255
204 255 76
204 255 76
255 190 0
204 255 76
204 255 76
255 190 0
255 190 0
255 255 255
255 190 0
255 190 0
204 255 76
204 255 76
255 190 0
204 255 76
204 255 76
0 254 255
204 255 76
255 190 0
204 255 76
0 254 255
