P3
10 10
255
223 248 157
223 248 157
223 248 157
223 248 157
223 248 157
180 7 5
180 7 5
180 7 5
42 128 255
180 7 5
223 248 157
223 248 157
223 248 157
223 248 157
180 7 5
180 7 5
180 7 5
42 128 255
180 7 5
180 7 5
223 248 157
255 128 42
223 248 157
223 248 157
180 7 5
255 128 42
223 248 157
180 7 5
180 7 5
223 248 157
255 128 42
255 128 42
255 128 42
223 248 157
255 128 42
255 128 42
223 248 157
180 76 5
180 76 5
255 128 42
255 128 42
196 255 42
255 128 42
223 248 157
255 128 42
255 128 42
223 248 157
180 76 5
196 255 42
255 128 42
255 128 42
196 255 42
255 128 42
255 128 42
255 128 42
255 128 42
180 76 5
180 76 5
196 255 42
255 128 42
255 128 42
196 255 42
196 255 42
196 255 42
255 128 42
255 128 42
196 255 42
196 255 42
196 255 42
255 128 42
196 255 42
196 255 42
223 248 157
180 76 5
180 76 5
180 76 5
180 76 5
223 248 157
196 255 42
196 255 42
196 255 42
223 248 157
223 248 157
180 76 5
61 27 4
61 27 4
180 76 5
180 76 5
223 248 157
223 248 157
223 248 157
223 248 157
180 76 5
180 76 5
61 27 4
61 27 4
61 27 4
180 76 5
180 76 5
223 248 157
