P3
5 5
255
56 59 50
0 212 255
0 212 255
0 212 255
255 229 0
56 59 50
56 59 50
0 212 255
0 212 255
0 212 255
56 59 50
56 59 50
56 59 50
0 212 255
0 212 255
56 59 50
56 59 50
56 59 50
56 59 50
0 212 255
158 198 65
158 198 65
158 198 65
158 198 65
158 198 65
