P3
10 10
255
0 255 57
0 255 57
0 255 57
0 255 57
0 255 57
0 255 57
0 255 57
0 255 57
0 255 57
0 255 57
0 255 57
0 255 57
0 255 57
0 255 57
0 255 57
0 255 57
34 97 84
0 255 57
0 255 57
0 255 57
0 255 57
0 255 57
0 255 57
0 255 57
0 255 57
0 255 57
34 97 84
34 97 84
0 255 57
0 255 57
34 97 84
34 97 84
34 97 84
34 97 84
34 97 84
34 97 84
34 97 84
34 97 84
34 97 84
0 255 57
34 97 84
34 97 84
34 97 84
34 97 84
34 97 84
34 97 84
34 97 84
34 97 84
34 97 84
34 97 84
34 97 84
34 97 84
34 97 84
34 97 84
34 97 84
34 97 84
34 97 84
34 97 84
34 97 84
34 97 84
34 97 84
34 97 84
34 97 84
34 97 84
34 97 84
34 97 84
34 97 84
34 97 84
34 97 84
0 255 57
0 255 57
0 255 57
0 255 57
0 255 57
0 255 57
0 255 57
34 97 84
34 97 84
0 255 57
0 255 57
0 255 57
0 255 57
0 255 57
0 255 57
0 255 57
0 255 57
34 97 84
0 255 57
0 255 57
0 255 57
0 255 57
0 255 57
0 255 57
0 255 57
0 255 57
0 255 57
0 255 57
0 255 57
0 255 57
0 255 57
