P3
15 15
255
132 47 18
132 47 18
132 47 18
132 47 18
132 47 18
132 47 18
132 47 18
132 47 18
50 90 158
50 90 158
50 90 158
50 90 158
255 248 246
50 90 158
50 90 158
132 47 18
132 47 18
132 47 18
132 47 18
50 90 158
50 90 158
50 90 158
132 47 18
50 90 158
50 90 158
50 90 158
50 90 158
50 90 158
50 90 158
50 90 158
132 47 18
50 90 158
50 90 158
50 90 158
50 90 158
78 78 78
255 248 246
255 248 246
78 78 78
50 90 158
50 90 158
50 90 158
50 90 158
50 90 158
50 90 158
50 90 158
50 90 158
50 90 158
50 90 158
78 78 78
255 248 246
50 90 158
255 248 246
255 248 246
196 255 0
50 90 158
50 90 158
50 90 158
50 90 158
50 90 158
50 90 158
50 90 158
50 90 158
50 90 158
255 248 246
50 90 158
196 255 0
196 255 0
255 248 246
196 255 0
50 90 158
50 90 158
50 90 158
50 90 158
50 154 158
50 90 158
50 90 158
50 90 158
50 90 158
78 78 78
196 255 0
196 255 0
78 78 78
196 255 0
78 78 78
50 90 158
50 90 158
50 90 158
50 154 158
50 154 158
50 90 158
255 248 246
50 90 158
50 90 158
50 90 158
78 78 78
196 255 0
78 78 78
78 78 78
50 90 158
50 90 158
50 90 158
50 154 158
255 248 246
50 154 158
255 248 246
255 248 246
255 248 246
50 90 158
50 90 158
50 90 158
50 90 158
0 0 0
50 90 158
50 90 158
50 90 158
50 154 158
255 248 246
255 248 246
255 248 246
50 90 158
255 248 246
50 90 158
50 90 158
50 90 158
50 90 158
50 90 158
201 87 75
0 0 0
201 87 75
201 87 75
50 154 158
50 154 158
255 248 246
50 154 158
50 90 158
50 90 158
50 90 158
50 90 158
50 90 158
50 90 158
104 36 29
201 87 75
201 87 75
201 87 75
201 87 75
50 154 158
50 154 158
50 154 158
50 154 158
50 90 158
50 90 158
50 90 158
50 90 158
50 90 158
50 90 158
104 36 29
104 36 29
201 87 75
201 87 75
201 87 75
201 87 75
50 154 158
50 154 158
50 154 158
50 90 158
50 90 158
50 90 158
50 90 158
50 90 158
50 154 158
50 154 158
104 36 29
104 36 29
201 87 75
201 87 75
201 87 75
50 154 158
50 154 158
50 154 158
50 90 158
50 90 158
50 90 158
50 90 158
50 154 158
50 154 158
50 154 158
104 36 29
104 36 29
104 36 29
201 87 75
201 87 75
201 87 75
50 154 158
50 154 158
50 90 158
50 90 158
50 90 158
50 154 158
50 154 158
50 154 158
50 154 158
104 36 29
104 36 29
104 36 29
104 36 29
201 87 75
201 87 75
201 87 75
50 154 158
50 90 158
50 154 158
50 154 158
50 154 158
50 154 158
50 154 158
50 154 158
50 154 158
104 36 29
104 36 29
104 36 29
104 36 29
104 36 29
201 87 75
201 87 75
