P3
15 15
255
0 6 180
0 6 180
0 6 180
0 6 180
0 6 180
0 6 180
0 6 180
0 6 180
0 6 180
0 6 180
0 6 180
0 6 180
0 6 180
0 6 180
0 6 180
0 6 180
0 6 180
0 6 180
0 6 180
0 6 180
0 6 180
0 6 180
0 6 180
0 6 180
0 6 180
0 6 180
0 6 180
0 6 180
0 6 180
0 6 180
0 6 180
0 6 180
0 6 180
180 0 0
180 0 0
180 0 0
180 0 0
180 0 0
180 0 0
180 0 0
255 255 255
0 6 180
0 6 180
0 6 180
0 6 180
0 6 180
0 6 180
180 0 0
180 0 0
180 0 0
180 0 0
180 0 0
180 0 0
180 0 0
0 6 180
0 6 180
0 6 180
0 6 180
0 6 180
0 6 180
0 6 180
0 6 180
180 0 0
255 255 255
255 255 255
255 255 255
255 255 255
255 255 255
180 0 0
180 0 0
0 6 180
136 123 123
136 123 123
136 123 123
0 6 180
0 6 180
0 6 180
0 6 180
222 68 68
222 68 68
222 68 68
222 68 68
222 68 68
255 255 255
136 123 123
136 123 123
136 123 123
255 255 255
136 123 123
136 123 123
0 6 180
0 0 0
0 0 0
255 255 255
180 0 0
180 0 0
255 255 255
255 255 255
255 255 255
136 123 123
255 255 255
255 255 255
255 255 255
255 255 255
136 123 123
0 6 180
0 0 0
255 255 255
255 255 255
255 255 255
255 255 255
255 255 255
255 255 255
180 0 0
180 0 0
180 0 0
136 123 123
255 255 255
255 255 255
136 123 123
136 123 123
136 123 123
255 255 255
255 255 255
180 0 0
180 0 0
180 0 0
180 0 0
180 0 0
180 0 0
180 0 0
136 123 123
136 123 123
255 255 255
136 123 123
0 6 180
136 123 123
255 255 255
180 0 0
180 0 0
180 0 0
180 0 0
180 0 0
180 0 0
180 0 0
0 0 0
136 123 123
136 123 123
136 123 123
136 123 123
0 6 180
180 0 0
180 0 0
0 0 0
0 0 0
0 0 0
0 0 0
0 0 0
0 0 0
0 0 0
180 0 0
136 123 123
136 123 123
136 123 123
136 123 123
0 6 180
0 6 180
180 0 0
180 0 0
0 0 0
0 0 0
0 0 0
0 0 0
0 0 0
180 0 0
180 0 0
136 123 123
136 123 123
136 123 123
136 123 123
0 6 180
0 6 180
180 0 0
180 0 0
180 0 0
180 0 0
180 0 0
180 0 0
180 0 0
180 0 0
136 123 123
136 123 123
136 123 123
136 123 123
0 6 180
0 0 0
0 0 0
0 0 0
0 0 0
0 6 180
0 6 180
0 6 180
180 0 0
180 0 0
0 0 0
0 0 0
0 6 180
0 6 180
0 6 180
0 6 180
0 6 180
0 6 180
0 6 180
0 6 180
0 6 180
0 6 180
0 6 180
0 6 180
0 6 180
0 0 0
0 0 0
0 0 0
0 6 180
0 6 180
0 6 180
