P3
5 5
255
175 121 89
0 0 0
175 121 89
0 0 0
175 121 89
175 121 89
120 255 0
175 121 89
120 255 0
175 121 89
175 121 89
175 121 89
175 121 89
175 121 89
175 121 89
175 121 89
28 11 1
175 121 89
28 11 1
175 121 89
175 121 89
28 11 1
28 11 1
28 11 1
175 121 89
