P3
15 15
255
0 0 0
0 0 0
0 0 0
0 0 0
0 0 0
0 0 0
0 0 0
85 74 71
0 0 0
0 0 0
0 0 0
0 0 0
255 255 255
0 0 0
0 0 0
0 0 0
0 0 0
255 255 255
0 0 0
0 0 0
0 0 0
85 74 71
43 37 36
85 74 71
0 0 0
0 0 0
0 0 0
0 0 0
0 0 0
0 0 0
0 0 0
0 0 0
0 0 0
0 0 0
0 0 0
85 74 71
85 74 71
22 21 20
43 37 36
85 74 71
0 0 0
0 0 0
255 255 255
0 0 0
0 0 0
255 255 255
0 0 0
0 0 0
0 0 0
85 74 71
85 74 71
85 74 71
9 8 8
22 21 20
43 37 36
85 74 71
0 0 0
0 0 0
0 0 0
0 0 0
0 0 0
0 0 0
0 0 0
85 74 71
85 74 71
85 74 71
85 74 71
85 74 71
9 8 8
22 21 20
43 37 36
85 74 71
0 0 0
0 0 0
0 0 0
0 0 0
0 0 0
85 74 71
85 74 71
251 255 5
251 255 5
251 255 5
85 74 71
85 74 71
9 8 8
22 21 20
43 37 36
85 74 71
0 0 0
0 0 0
0 0 0
85 74 71
85 74 71
85 74 71
251 255 5
255 5 5
251 255 5
85 74 71
85 74 71
85 74 71
9 8 8
22 21 20
43 37 36
85 74 71
0 0 0
85 74 71
85 74 71
85 74 71
85 74 71
251 255 5
255 5 5
251 255 5
85 74 71
85 74 71
85 74 71
85 74 71
9 8 8
22 21 20
43 37 36
85 74 71
0 0 0
85 74 71
85 74 71
85 74 71
251 255 5
251 255 5
251 255 5
85 74 71
85 74 71
85 74 71
9 8 8
22 21 20
43 37 36
85 74 71
0 0 0
0 0 0
0 0 0
85 74 71
85 74 71
85 74 71
85 74 71
85 74 71
85 74 71
85 74 71
85 74 71
85 74 71
9 8 8
85 74 71
0 0 0
0 0 0
0 0 0
0 0 0
0 0 0
85 74 71
85 74 71
85 74 71
85 74 71
85 74 71
85 74 71
85 74 71
85 74 71
85 74 71
0 0 0
0 0 0
0 0 0
0 0 0
0 0 0
0 0 0
0 0 0
85 74 71
85 74 71
85 74 71
85 74 71
85 74 71
85 74 71
85 74 71
0 0 0
0 0 0
0 0 0
255 255 255
0 0 0
0 0 0
255 255 255
0 0 0
0 0 0
85 74 71
85 74 71
85 74 71
85 74 71
85 74 71
0 0 0
0 0 0
0 0 0
255 255 255
0 0 0
0 0 0
255 255 255
255 255 255
255 255 255
0 0 0
0 0 0
85 74 71
85 74 71
85 74 71
0 0 0
0 0 0
0 0 0
0 0 0
0 0 0
0 0 0
0 0 0
0 0 0
255 255 255
0 0 0
0 0 0
0 0 0
0 0 0
85 74 71
0 0 0
0 0 0
0 0 0
255 255 255
0 0 0
0 0 0
0 0 0
