P3
15 15
255
120 255 0
120 255 0
120 255 0
120 255 0
120 255 0
120 255 0
0 255 197
0 255 197
0 255 197
0 255 197
0 255 197
0 255 197
0 255 197
0 255 197
28 11 1
120 255 0
120 255 0
120 255 0
0 255 197
0 255 197
0 255 197
0 255 197
0 255 197
0 255 197
0 255 197
0 255 197
0 255 197
0 255 197
28 11 1
28 11 1
120 255 0
120 255 0
120 255 0
0 255 197
0 255 197
0 255 197
0 255 197
0 255 197
0 255 197
0 255 197
0 255 197
0 255 197
28 11 1
28 11 1
175 121 89
120 255 0
0 255 197
0 255 197
120 255 0
0 255 197
0 255 197
0 255 197
0 255 197
0 255 197
0 255 197
0 255 197
28 11 1
28 11 1
175 121 89
175 121 89
120 255 0
0 255 197
0 255 197
0 255 197
0 255 197
0 255 197
0 255 197
0 255 197
0 255 197
0 255 197
28 11 1
28 11 1
175 121 89
175 121 89
175 121 89
0 255 197
0 255 197
0 255 197
0 255 197
0 255 197
0 255 197
0 255 197
0 255 197
0 255 197
28 11 1
28 11 1
175 121 89
175 121 89
175 121 89
175 121 89
0 255 197
0 255 197
0 255 197
0 255 197
0 255 197
0 255 197
0 255 197
0 255 197
28 11 1
28 11 1
175 121 89
175 121 89
175 121 89
175 121 89
175 121 89
0 255 197
0 255 197
0 255 197
0 255 197
0 255 197
0 255 197
0 255 197
28 11 1
28 11 1
175 121 89
175 121 89
175 121 89
175 121 89
175 121 89
175 121 89
0 255 197
0 255 197
0 255 197
0 255 197
0 255 197
0 255 197
28 11 1
28 11 1
175 121 89
175 121 89
175 121 89
175 121 89
175 121 89
175 121 89
175 121 89
0 255 197
0 255 197
0 255 197
0 255 197
0 255 197
28 11 1
28 11 1
175 121 89
175 121 89
175 121 89
175 121 89
175 121 89
175 121 89
175 121 89
175 121 89
0 255 197
0 255 197
0 255 197
0 255 197
28 11 1
28 11 1
175 121 89
175 121 89
175 121 89
175 121 89
175 121 89
175 121 89
175 121 89
175 121 89
175 121 89
0 255 197
0 255 197
0 255 197
28 11 1
28 11 1
175 121 89
175 121 89
175 121 89
175 121 89
175 121 89
175 121 89
175 121 89
175 121 89
175 121 89
175 121 89
0 255 197
0 255 197
28 11 1
28 11 1
175 121 89
175 121 89
175 121 89
175 121 89
175 121 89
175 121 89
175 121 89
175 121 89
175 121 89
175 121 89
175 121 89
0 255 197
28 11 1
28 11 1
175 121 89
175 121 89
175 121 89
175 121 89
175 121 89
175 121 89
175 121 89
175 121 89
175 121 89
175 121 89
175 121 89
175 121 89
28 11 1
28 11 1
175 121 89
28 11 1
28 11 1
175 121 89
28 11 1
28 11 1
28 11 1
28 11 1
28 11 1
28 11 1
28 11 1
28 11 1
28 11 1
