P3
5 5
255
25 5 5
25 5 5
255 0 0
25 5 5
25 5 5
25 5 5
255 0 0
255 0 0
255 0 0
25 5 5
255 0 0
25 5 5
255 0 0
25 5 5
255 0 0
25 5 5
25 5 5
255 0 0
25 5 5
25 5 5
25 5 5
25 5 5
255 0 0
25 5 5
25 5 5
