P3
10 10
255
4 25 5
5 34 6
4 25 5
5 34 6
4 25 5
5 34 6
4 25 5
5 34 6
4 25 5
5 34 6
5 34 6
4 25 5
5 34 6
4 25 5
5 34 6
4 25 5
5 34 6
4 25 5
5 34 6
4 25 5
4 25 5
5 34 6
4 25 5
5 34 6
28 89 210
5 34 6
4 25 5
5 34 6
4 25 5
5 34 6
5 34 6
4 25 5
5 34 6
28 89 210
25 5 5
28 89 210
5 34 6
4 25 5
5 34 6
4 25 5
4 25 5
5 34 6
28 89 210
25 5 5
25 5 5
25 5 5
28 89 210
5 34 6
4 25 5
5 34 6
5 34 6
28 89 210
25 5 5
25 5 5
25 5 5
25 5 5
25 5 5
28 89 210
5 34 6
4 25 5
28 89 210
28 89 210
25 5 5
13 12 12
13 12 12
13 12 12
25 5 5
28 89 210
28 89 210
5 34 6
28 89 210
28 89 210
25 5 5
13 12 12
3 2 2
13 12 12
25 5 5
28 89 210
28 89 210
28 89 210
28 89 210
25 5 5
25 5 5
13 12 12
3 2 2
13 12 12
25 5 5
25 5 5
28 89 210
28 89 210
25 5 5
25 5 5
25 5 5
13 12 12
0 0 0
13 12 12
25 5 5
25 5 5
25 5 5
28 89 210
