P3
8 9
255
0 0 0
0 0 0
0 0 0
0 0 0
0 0 0
0 0 0
0 0 0
0 0 0
0 0 0
255 255 255
187 187 187
187 187 187
64 64 64
64 64 64
255 255 255
0 0 0
0 0 0
255 255 255
187 187 187
187 187 187
64 64 64
64 64 64
255 255 255
0 0 0
0 0 0
255 255 255
187 187 187
187 187 187
64 64 64
64 64 64
255 255 255
0 0 0
0 0 0
255 255 255
255 255 255
255 255 255
255 255 255
255 255 255
255 255 255
0 0 0
0 0 0
255 255 255
187 187 187
187 187 187
187 187 187
187 187 187
255 255 255
0 0 0
0 0 0
255 255 255
187 187 187
187 187 187
187 187 187
187 187 187
255 255 255
0 0 0
0 0 0
255 255 255
255 255 255
255 255 255
255 255 255
255 255 255
255 255 255
0 0 0
0 0 0
0 0 0
0 0 0
0 0 0
0 0 0
0 0 0
0 0 0
0 0 0
