P3
5 5
255
0 0 0
127 255 255
127 255 255
127 255 255
0 0 0
0 0 0
127 255 255
127 201 255
127 255 255
0 0 0
0 0 0
0 0 0
160 160 160
0 0 0
0 0 0
0 0 0
127 255 255
127 201 255
127 255 255
0 0 0
0 0 0
127 255 255
127 255 255
127 255 255
0 0 0
