P3
15 15
255
48 48 48
48 48 48
183 183 183
183 183 183
183 183 183
183 183 183
183 183 183
183 183 183
183 183 183
183 183 183
183 183 183
183 183 183
183 183 183
48 48 48
48 48 48
48 48 48
48 48 48
48 48 48
183 183 183
183 183 183
183 183 183
183 183 183
183 183 183
183 183 183
183 183 183
183 183 183
183 183 183
48 48 48
48 48 48
48 48 48
183 183 183
48 48 48
48 48 48
48 48 48
183 183 183
183 183 183
183 183 183
183 183 183
183 183 183
183 183 183
183 183 183
48 48 48
48 48 48
48 48 48
183 183 183
183 183 183
183 183 183
48 48 48
48 48 48
48 48 48
183 183 183
183 183 183
183 183 183
183 183 183
183 183 183
48 48 48
48 48 48
48 48 48
183 183 183
183 183 183
183 183 183
183 183 183
183 183 183
48 48 48
48 48 48
48 48 48
183 183 183
183 183 183
183 183 183
48 48 48
48 48 48
48 48 48
183 183 183
183 183 183
183 183 183
183 183 183
183 183 183
183 183 183
183 183 183
48 48 48
48 48 48
48 48 48
183 183 183
48 48 48
48 48 48
48 48 48
183 183 183
183 183 183
183 183 183
183 183 183
183 183 183
183 183 183
183 183 183
183 183 183
183 183 183
48 48 48
48 48 48
48 48 48
48 48 48
48 48 48
183 183 183
183 183 183
183 183 183
183 183 183
183 183 183
183 183 183
183 183 183
183 183 183
183 183 183
183 183 183
183 183 183
48 48 48
48 48 48
48 48 48
183 183 183
183 183 183
183 183 183
183 183 183
183 183 183
183 183 183
183 183 183
183 183 183
183 183 183
183 183 183
183 183 183
48 48 48
48 48 48
48 48 48
48 48 48
48 48 48
183 183 183
183 183 183
183 183 183
183 183 183
183 183 183
183 183 183
183 183 183
183 183 183
183 183 183
48 48 48
48 48 48
48 48 48
183 183 183
48 48 48
48 48 48
48 48 48
183 183 183
183 183 183
183 183 183
183 183 183
183 183 183
183 183 183
183 183 183
48 48 48
48 48 48
48 48 48
183 183 183
183 183 183
183 183 183
48 48 48
48 48 48
48 48 48
183 183 183
183 183 183
183 183 183
183 183 183
183 183 183
48 48 48
48 48 48
48 48 48
183 183 183
183 183 183
183 183 183
183 183 183
183 183 183
48 48 48
48 48 48
48 48 48
183 183 183
183 183 183
183 183 183
48 48 48
48 48 48
48 48 48
183 183 183
183 183 183
183 183 183
183 183 183
183 183 183
183 183 183
183 183 183
48 48 48
48 48 48
48 48 48
183 183 183
48 48 48
48 48 48
48 48 48
183 183 183
183 183 183
183 183 183
183 183 183
183 183 183
183 183 183
183 183 183
183 183 183
183 183 183
48 48 48
48 48 48
48 48 48
48 48 48
48 48 48
183 183 183
183 183 183
183 183 183
183 183 183
183 183 183
183 183 183
183 183 183
183 183 183
183 183 183
183 183 183
183 183 183
48 48 48
48 48 48
