P3
10 10
255
128 128 128 
128 128 128 
128 128 128 
128 128 128 
128 128 128 
128 128 128 
128 128 128 
128 128 128 
128 128 128 
128 128 128 
128 128 128 
220 220 220 
220 220 220 
220 220 220 
220 220 220 
220 220 220 
220 220 220 
220 220 220 
220 220 220 
128 128 128 
128 128 128 
220 220 220 
128 128 128 
128 128 128 
128 128 128 
128 128 128 
128 128 128 
128 128 128 
220 220 220 
128 128 128 
128 128 128 
220 220 220 
128 128 128 
220 220 220 
220 220 220 
220 220 220 
220 220 220 
128 128 128 
220 220 220 
128 128 128 
128 128 128 
220 220 220 
128 128 128 
220 220 220 
128 128 128 
128 128 128 
128 128 128 
128 128 128 
220 220 220 
128 128 128 
128 128 128 
220 220 220 
220 220 220 
220 220 220 
128 128 128 
128 128 128 
220 220 220 
220 220 220 
220 220 220 
128 128 128 
128 128 128 
220 220 220 
220 220 220 
220 220 220 
220 220 220 
220 220 220 
220 220 220 
220 220 220 
220 220 220 
128 128 128 
128 128 128 
220 220 220 
220 220 220 
220 220 220 
128 128 128 
128 128 128 
220 220 220 
220 220 220 
220 220 220 
128 128 128 
128 128 128 
220 220 220 
220 220 220 
220 220 220 
220 220 220 
220 220 220 
220 220 220 
220 220 220 
220 220 220 
128 128 128 
128 128 128 
128 128 128 
128 128 128 
128 128 128 
128 128 128 
128 128 128 
128 128 128 
128 128 128 
128 128 128 
128 128 128 